<?xml version="1.0" standalone="no"?><!DOCTYPE svg PUBLIC "-//W3C//DTD SVG 1.1//EN" "http://www.w3.org/Graphics/SVG/1.1/DTD/svg11.dtd"><svg class="icon" width="200px" height="200.00px" viewBox="0 0 1024 1024" version="1.1" xmlns="http://www.w3.org/2000/svg"><path  d="M729.97744994 133.26390799a392.32 392.32 0 0 0-46.31077988 61.69742345l-61.99912258-61.99912258a64 64 0 0 0-90.50966799 0l-133.50176029 133.50176029a397.653333 397.653333 0 0 0-46.76332823-62.14997178 113.28 113.28 0 0 0-159.90041392-3.62038671 113.493333 113.493333 0 0 0 3.46953751 160.05126312 397.653333 397.653333 0 0 0 62.14997178 46.76332823L123.86437353 540.25571484a64 64 0 0 0 0 90.50966798l278.92062733 278.92062733a64 64 0 0 0 90.50966799 0l142.55272709-142.55272709A30.08 30.08 0 0 0 629.8134176 720.06825571a377.386667 377.386667 0 0 1-59.28383253-43.59549055 70.613333 70.613333 0 0 1-3.46953751-99.71148401 70.613333 70.613333 0 0 1 99.56063479 3.62038672 379.733333 379.733333 0 0 1 43.59549055 59.28383255 30.08 30.08 0 0 0 22.02401945 13.87814931 29.653333 29.653333 0 0 0 24.43760965-8.44756924L899.98477656 501.78910593a64 64 0 0 0 0-90.50966798l-75.42472286-75.42472287a392.32 392.32 0 0 0 61.69742345-46.31077987 110.72 110.72 0 1 0-156.58172563-156.58172563z m126.41183677 126.41183677a405.333333 405.333333 0 0 1-67.42970265 48.42267238 30.293333 30.293333 0 0 0-14.33069767 22.17486795A29.653333 29.653333 0 0 0 783.52900398 355.1634445l87.19097969 87.19097969a21.333333 21.333333 0 0 1 7.1e-7 30.16988956l-131.99326606 131.99326606a364.586667 364.586667 0 0 0-41.03104973-53.40070482 113.28 113.28 0 0 0-159.90041321-3.62038602 113.493333 113.493333 0 0 0 3.4695368 160.05126244 364.586667 364.586667 0 0 0 53.40070482 41.03104972L463.42647841 879.81781972a21.333333 21.333333 0 0 1-30.16988956-7.1e-7L154.03426309 600.59549325a21.333333 21.333333 0 0 1 0-30.16988886l144.21207124-144.21207122a30.08 30.08 0 0 0-5.88312842-46.91417744 407.253333 407.253333 0 0 1-67.73140178-48.72437152 70.613333 70.613333 0 0 1-3.46953751-99.71148399 70.613333 70.613333 0 0 1 99.56063479 3.62038671 394.666667 394.666667 0 0 1 48.27182316 68.18395014 30.08 30.08 0 0 0 46.91417815 5.8831277L561.32776906 163.13209843a21.333333 21.333333 0 0 1 30.16988885 0l73.463681 73.46368099a29.653333 29.653333 0 0 0 24.58845957 8.59841775 30.08 30.08 0 0 0 22.17486865-14.33069695 405.333333 405.333333 0 0 1 48.42267238-67.42970265 68.266667 68.266667 0 1 1 96.2419472 96.24194719z" /></svg>